<svg width="50" height="54" viewBox="0 0 50 54" fill="none" xmlns="http://www.w3.org/2000/svg">
<g clip-path="url(#clip0_69_257)">
<path d="M25 53.9965C38.8071 53.9965 50 41.909 50 26.9983C50 12.0875 38.8071 0 25 0C11.1929 0 0 12.0875 0 26.9983C0 41.909 11.1929 53.9965 25 53.9965Z" fill="#07E5CA"/>
<path d="M25.2108 36.1105L21.9441 32.9816L18.3864 38.2944L31.9485 52.9392C40.3553 50.3175 46.9399 43.0596 49.1757 33.8949L31.9346 15.2759L16.1582 19.9659L23.0847 27.4298L22.7307 29.1315L28.1715 34.8138C28.1715 34.8137 26.302 36.3284 25.2108 36.1105Z" fill="#00B59B"/>
<path d="M31.9347 15.2754C30.368 13.3899 27.7513 12.2642 24.935 12.2642C24.3643 12.2642 23.7918 12.3208 23.2336 12.4325L23.0616 12.4668C21.348 12.8087 19.7955 13.6593 18.5719 14.9265C17.373 16.1691 16.572 17.7297 16.2555 19.4396L16.1582 19.9653L21.944 20.4381L22.0617 20.1097C22.3971 19.1742 23.2055 18.4732 24.1714 18.2803L24.3434 18.2461C25.4346 18.0284 26.5552 18.4259 27.2685 19.2843C28.2143 20.4222 28.1198 22.2501 27.0621 23.2762C26.5498 23.7733 24.0279 24.3474 23.1891 24.3096L22.7308 24.2884V29.131L23.1891 29.1098C24.0335 29.0715 26.55 29.6462 27.0622 30.1432C28.1198 31.1693 28.2143 32.9972 27.2684 34.1352C26.5552 34.9935 25.4345 35.3911 24.3433 35.1733L24.1715 35.1391C23.2055 34.9462 22.3971 34.2452 22.0617 33.3097L21.944 32.9813L16.1582 33.4541L16.2555 33.9798C16.5719 35.6897 17.3729 37.2503 18.572 38.493C19.7954 39.7602 21.348 40.6108 23.0616 40.9527L23.2334 40.9869C23.7918 41.0986 24.3643 41.1553 24.935 41.1553C27.7513 41.1553 30.368 40.0296 31.9346 38.1441C34.5744 34.9674 34.45 30.0285 31.7093 26.7097C34.45 23.3909 34.5745 18.452 31.9347 15.2754Z" fill="#F8FFFB"/>
<path d="M31.709 26.7097C34.4502 30.0286 34.5742 34.9674 31.9346 38.1449C30.3799 40.0148 27.792 41.1379 25 41.1548V35.231C25.8672 35.2131 26.6992 34.8218 27.2686 34.1353C28.2139 32.9973 28.1201 31.1697 27.0625 30.1435C26.7793 29.8693 25.8857 29.5709 25 29.3652V24.0542C25.8857 23.8485 26.7793 23.5511 27.0625 23.2769C28.1201 22.2508 28.2139 20.4231 27.2686 19.2852C26.6992 18.5986 25.8672 18.2074 25 18.1894V12.2656C27.792 12.2825 30.3799 13.4046 31.9346 15.2755C34.5742 18.452 34.4502 23.3908 31.709 26.7097Z" fill="#D8D8D8"/>
</g>
<defs>
<clipPath id="clip0_69_257">
<rect width="50" height="53.9965" fill="white"/>
</clipPath>
</defs>
</svg>
