<svg width="50" height="55" viewBox="0 0 50 55" fill="none" xmlns="http://www.w3.org/2000/svg">
<path d="M25 54.0317C38.8071 54.0317 50 41.9441 50 27.0334C50 12.1227 38.8071 0.0351562 25 0.0351562C11.1929 0.0351562 0 12.1227 0 27.0334C0 41.9441 11.1929 54.0317 25 54.0317Z" fill="#FF3333"/>
<path d="M31.7828 53.0253C41.8893 49.9552 49.4019 40.1965 49.9648 28.4521L35.3018 12.6169L17.9942 14.221L15.9414 18.7337L26.628 30.6746L21.0332 41.4165L31.7828 53.0253Z" fill="#C60000"/>
<path d="M35.3018 12.6169L26.9678 41.4165H21.0332L27.5977 18.7337H15.9414V12.6169H35.3018Z" fill="#F8FFFB"/>
<path d="M35.3027 12.6169L26.9688 41.4165H25V27.7128L27.5986 18.7337H25V12.6169H35.3027Z" fill="#D8D8D8"/>
</svg>
