<svg width="50" height="54" viewBox="0 0 50 54" fill="none" xmlns="http://www.w3.org/2000/svg">
<g clip-path="url(#clip0_69_221)">
<path d="M25 53.9965C38.8071 53.9965 50 41.909 50 26.9983C50 12.0875 38.8071 0 25 0C11.1929 0 0 12.0875 0 26.9983C0 41.909 11.1929 53.9965 25 53.9965Z" fill="#424242"/>
<path d="M27.6946 53.84C38.4402 52.5963 47.1473 44.0007 49.4192 32.8024L33.2994 15.394C33.2994 15.394 20.1113 15.0004 15.3477 23.4616L22.3675 31.0617L16.1164 41.4148L27.6946 53.84Z" fill="#232323"/>
<path d="M35.3985 41.415H16.1163V34.386L28.4999 24.2614C30.0702 22.9775 29.6918 21.1872 29.5385 20.6691C29.3907 20.1701 28.7618 18.5367 26.8719 18.4771C26.8298 18.4758 26.7557 18.4751 26.726 18.4749H24.5363C21.3108 18.4749 21.0603 22.2919 21.0603 23.4617H15.3477C15.3477 16.8932 19.1262 12.3057 24.5363 12.3057L26.7583 12.3058C26.7583 12.3058 26.945 12.3076 27.038 12.3104C30.7319 12.4269 33.849 14.9706 34.9799 18.7905C36.1252 22.6597 34.9351 26.7377 31.9481 29.1799L24.529 35.2458H35.3986V41.415H35.3985Z" fill="#F8FFFB"/>
<path d="M31.9484 29.1794L25.379 34.5509V26.8128L28.5002 24.261C30.0702 22.9773 29.692 21.187 29.5393 20.6691C29.3915 20.1692 28.7621 18.5365 26.8721 18.477C26.8297 18.4759 26.7559 18.4749 26.7263 18.4749H25.3789V12.3057H26.7588C26.7588 12.3057 26.9449 12.3078 27.0385 12.3099C30.7319 12.4268 33.8492 14.9701 34.98 18.7907C36.1255 22.6592 34.9358 26.7373 31.9484 29.1794Z" fill="#D8D8D8"/>
<path d="M25.3789 35.2451H35.3986V41.4143H25.3789V35.2451Z" fill="#D8D8D8"/>
</g>
<defs>
<clipPath id="clip0_69_221">
<rect width="50" height="53.9965" fill="white"/>
</clipPath>
</defs>
</svg>
