<svg width="50" height="54" viewBox="0 0 50 54" fill="none" xmlns="http://www.w3.org/2000/svg">
<path d="M25 53.9965C38.8071 53.9965 50 41.909 50 26.9983C50 12.0875 38.8071 0 25 0C11.1929 0 0 12.0875 0 26.9983C0 41.909 11.1929 53.9965 25 53.9965Z" fill="#424242"/>
<path d="M49.6912 31.2454L32.4092 12.582L14.9854 34.1733L32.2675 52.8368C41.3124 49.8735 48.1872 41.5245 49.6912 31.2454Z" fill="#232323"/>
<path d="M32.4092 28.0565V12.582H25.0537L14.9854 28.1809V34.1733H26.7451V41.4153H32.4092V34.1733H36.0293V28.0565H32.4092ZM26.7451 28.0565H21.9697L26.7451 20.6594V28.0565Z" fill="#F8FFFB"/>
<path d="M32.4092 28.0565V12.582H25.0537L25 12.6653V23.3624L26.7451 20.6594V28.0565H25V34.1733H26.7451V41.4153H32.4092V34.1733H36.0293V28.0565H32.4092Z" fill="#D8D8D8"/>
</svg>
