<svg width="50" height="54" viewBox="0 0 50 54" fill="none" xmlns="http://www.w3.org/2000/svg">
<path d="M25 53.9965C38.8071 53.9965 50 41.909 50 26.9983C50 12.0875 38.8071 0 25 0C11.1929 0 0 12.0875 0 26.9983C0 41.909 11.1929 53.9965 25 53.9965Z" fill="#FF6529"/>
<path d="M49.4279 32.7594L32.2292 14.186C32.2292 14.186 19.2441 14.1269 19.2441 27.0405C19.2441 39.9541 19.2441 39.9541 19.2441 39.9541L31.4153 53.098C40.4236 50.5224 47.4364 42.6533 49.4279 32.7594Z" fill="#E53B07"/>
<path d="M24.9743 22.8933C23.8233 22.8933 22.7226 23.1295 21.7111 23.5592C21.7902 22.3681 22.2397 21.2452 22.999 20.3642C24.3799 18.762 26.5635 18.254 28.4326 19.1004L30.0381 19.8273L32.2281 14.1861L30.6227 13.4593C26.5738 11.626 21.8438 12.7263 18.8529 16.1969C17.0347 18.3066 16.0332 21.0558 16.0332 23.938V32.1237V32.5489C16.0332 37.8732 20.0442 42.2048 24.9744 42.2048C29.9045 42.2048 33.9155 37.8733 33.9155 32.5489C33.9154 27.2249 29.9044 22.8933 24.9743 22.8933ZM24.9743 36.088C23.1674 36.088 21.6973 34.5004 21.6973 32.5489C21.6973 30.5976 23.1674 29.01 24.9743 29.01H24.9744C26.7813 29.01 28.2515 30.5976 28.2515 32.5489C28.2514 34.5005 26.7812 36.088 24.9743 36.088Z" fill="#F8FFFB"/>
<path d="M28.4336 19.1002L30.0391 19.8268L32.2285 14.1856L30.623 13.459C28.8125 12.6396 26.8662 12.4065 25 12.7092V18.9725C26.0986 18.5718 27.3223 18.596 28.4336 19.1002ZM25 22.8926V29.0094C25.8936 29.0167 26.7041 29.4133 27.291 30.0471C27.8848 30.6883 28.252 31.5731 28.252 32.5487C28.252 34.4913 26.7959 36.0732 25 36.088V42.2048C29.9189 42.19 33.916 37.864 33.916 32.5487C33.916 27.2323 29.9189 22.9073 25 22.8926Z" fill="#D8D8D8"/>
</svg>
