<svg width="50" height="54" viewBox="0 0 50 54" fill="none" xmlns="http://www.w3.org/2000/svg">
<g clip-path="url(#clip0_69_190)">
<path d="M25 54.1572C38.8071 54.1572 50 42.0696 50 27.1589C50 12.2482 38.8071 0.160645 25 0.160645C11.1929 0.160645 0 12.2482 0 27.1589C0 42.0696 11.1929 54.1572 25 54.1572Z" fill="#07E5CA"/>
<path d="M30.963 53.383C41.2287 50.6702 49.006 41.1125 49.9111 29.4428L34.4471 12.7427L19.4938 14.4688L15.4863 28.5113L21.6326 34.9731L17.8496 39.2653L30.963 53.383Z" fill="#00B59B"/>
<path d="M22.8594 18.8595L22.3252 22.2406L24.5801 22.1256C27.1484 21.9938 29.6865 22.8238 31.5439 24.7442C35.126 28.4481 35.4307 34.5596 32.2373 38.6568C30.3799 41.0402 27.6582 42.3764 24.835 42.3764C24.2139 42.3764 23.5879 42.3121 22.9648 42.1792L22.7666 42.137C20.8877 41.7373 19.1865 40.7439 17.8477 39.2653C16.5381 37.8184 15.667 36.0086 15.3223 34.0228L21.0488 33.524C21.4932 34.8454 22.5596 35.8589 23.8623 36.1362L24.0605 36.1784C25.4912 36.4832 26.9639 35.9232 27.9033 34.7178C29.1787 33.0821 29.0576 30.6417 27.627 29.162C26.8848 28.3943 25.8711 27.9861 24.8457 28.0368L15.4844 28.5113L18.1289 12.7427H34.4451V18.8595H22.8594Z" fill="#F8FFFB"/>
<path d="M31.5449 24.7441C35.127 28.448 35.4316 34.5595 32.2383 38.6567C30.417 40.9937 27.7646 42.3247 25 42.3742V36.2564C26.1104 36.2079 27.1699 35.6595 27.9043 34.7177C29.1797 33.082 29.0586 30.6416 27.6279 29.1619C26.9229 28.4321 25.9727 28.0272 25 28.0324V22.1129C27.4238 22.0875 29.7881 22.9281 31.5449 24.7441Z" fill="#D8D8D8"/>
<path d="M25 12.7427H34.4463V18.8595H25V12.7427Z" fill="#D8D8D8"/>
</g>
<defs>
<clipPath id="clip0_69_190">
<rect width="50" height="53.9965" fill="white"/>
</clipPath>
</defs>
</svg>
