<svg width="50" height="55" viewBox="0 0 50 55" fill="none" xmlns="http://www.w3.org/2000/svg">
<path d="M25 54.0317C38.8071 54.0317 50 41.9441 50 27.0334C50 12.1227 38.8071 0.0351562 25 0.0351562C11.1929 0.0351562 0 12.1227 0 27.0334C0 41.9441 11.1929 54.0317 25 54.0317Z" fill="#FFB54A"/>
<path d="M48.9232 34.8904L31.267 15.8229C31.267 15.8229 21.7557 15.1644 20.6558 21.3754C19.556 27.5864 18.9443 39.5674 18.9443 39.5674L31.4865 53.1121C39.8151 50.7021 46.4275 43.7643 48.9232 34.8904Z" fill="#F9880D"/>
<path d="M31.5404 26.5464C32.5263 25.096 33.1103 23.3084 33.1103 21.3755C33.1103 16.546 29.4721 12.6169 25.0001 12.6169C20.5281 12.6169 16.8899 16.546 16.8899 21.3755C16.8899 23.3084 17.4739 25.0962 18.4598 26.5464C16.9421 28.1521 15.998 30.3878 15.998 32.8582C15.998 37.642 19.6019 41.534 24.0317 41.534H25.9687C30.3984 41.534 34.0023 37.6421 34.0023 32.8582C34.0022 30.3878 33.0581 28.1521 31.5404 26.5464ZM25.0001 18.7337C26.3488 18.7337 27.4462 19.9188 27.4462 21.3755C27.4462 22.832 26.3489 24.0171 25.0001 24.0171C23.6513 24.0171 22.554 22.8321 22.554 21.3755C22.554 19.9188 23.6514 18.7337 25.0001 18.7337ZM25.9686 35.4171H24.0316C22.725 35.4171 21.662 34.2691 21.662 32.858C21.662 31.3558 22.7937 30.1338 24.1846 30.1338H25.8155C27.2064 30.1338 28.3381 31.3558 28.3381 32.858C28.3382 34.2692 27.2752 35.4171 25.9686 35.4171Z" fill="#F8FFFB"/>
<path d="M31.54 26.5464C32.5264 25.0963 33.1104 23.3087 33.1104 21.3756C33.1104 16.5465 29.4717 12.6169 25 12.6169V18.7337C26.3486 18.7337 27.4463 19.9191 27.4463 21.3756C27.4463 22.832 26.3486 24.0174 25 24.0174V30.1342H25.8154C27.2061 30.1342 28.3379 31.3554 28.3379 32.8583C28.3379 34.2693 27.2754 35.4168 25.9688 35.4168H25V41.5336H25.9688C30.3984 41.5336 34.002 37.642 34.002 32.8583C34.002 30.3873 33.0576 28.1525 31.54 26.5464Z" fill="#D8D8D8"/>
</svg>
