<svg width="20" height="16" viewBox="0 0 20 16" fill="none" xmlns="http://www.w3.org/2000/svg">
<path d="M18.75 4.27885H15V3.54242C15 2.76116 14.4732 2.0119 13.5355 1.45947C12.5979 0.907033 11.3261 0.59668 10 0.59668C8.67392 0.59668 7.40215 0.907033 6.46447 1.45947C5.52678 2.0119 5 2.76116 5 3.54242V4.27885H1.25C0.918479 4.27885 0.600537 4.35644 0.366117 4.49455C0.131696 4.63265 0 4.81997 0 5.01528V13.1161C0 13.702 0.395088 14.2639 1.09835 14.6783C1.80161 15.0926 2.75544 15.3254 3.75 15.3254H16.25C17.2446 15.3254 18.1984 15.0926 18.9017 14.6783C19.6049 14.2639 20 13.702 20 13.1161V5.01528C20 4.81997 19.8683 4.63265 19.6339 4.49455C19.3995 4.35644 19.0815 4.27885 18.75 4.27885ZM7.5 3.54242C7.5 3.15179 7.76339 2.77716 8.23223 2.50094C8.70107 2.22472 9.33696 2.06955 10 2.06955C10.663 2.06955 11.2989 2.22472 11.7678 2.50094C12.2366 2.77716 12.5 3.15179 12.5 3.54242V4.27885H7.5V3.54242ZM17.5 13.1161C17.5 13.3114 17.3683 13.4987 17.1339 13.6368C16.8995 13.7749 16.5815 13.8525 16.25 13.8525H3.75C3.41848 13.8525 3.10054 13.7749 2.86612 13.6368C2.6317 13.4987 2.5 13.3114 2.5 13.1161V5.75172H5V6.48815C5 6.68347 5.1317 6.87078 5.36612 7.00889C5.60054 7.147 5.91848 7.22459 6.25 7.22459C6.58152 7.22459 6.89946 7.147 7.13388 7.00889C7.3683 6.87078 7.5 6.68347 7.5 6.48815V5.75172H12.5V6.48815C12.5 6.68347 12.6317 6.87078 12.8661 7.00889C13.1005 7.147 13.4185 7.22459 13.75 7.22459C14.0815 7.22459 14.3995 7.147 14.6339 7.00889C14.8683 6.87078 15 6.68347 15 6.48815V5.75172H17.5V13.1161Z" fill="#FF6652"/>
</svg>
